<svg width="385" height="385" viewBox="0 0 181 385" fill="#052235"
  xmlns="http://www.w3.org/2000/svg">
  <path fill-rule="evenodd" clip-rule="evenodd" d="M171.093 2.11142L26.5993 171.318C24.5304 173.878 25.1268 177.678 27.8878 179.47L78.9263 212.676C81.2971 214.218 82.1291 217.301 80.8553 219.832L59.1132 263.093L0.726682 376.733C-2.42457 382.561 5.43147 388.043 9.78285 383.041L92.6578 294.306L171.388 210.241C173.81 207.652 173.228 203.491 170.187 201.669L113.031 167.394C110.535 165.903 109.614 162.724 110.925 160.127L180.348 8.10921C183.345 2.17044 175.275 -3.0601 171.093 2.11142Z" fill="url(#paint0_linear)"/>
  <defs>
    <linearGradient id="paint0_linear" x1="50.8166" y1="-87.223" x2="-190.872" y2="50.8224" gradientUnits="userSpaceOnUse">
      <stop stop-color="#B1FFBF"/>
      <stop offset="1" stop-color="#FFF16D"/>
    </linearGradient>
  </defs>
</svg>
