<svg width="200" height="200" viewBox="0 0 200 200" fill="none" xmlns="http://www.w3.org/2000/svg">
<g clip-path="url(#clip0_3355_20428)">
<mask id="mask0_3355_20428" style="mask-type:luminance" maskUnits="userSpaceOnUse" x="0" y="0" width="200" height="200">
<path d="M200 4.57764e-05H0V200H200V4.57764e-05Z" fill="white"/>
</mask>
<g mask="url(#mask0_3355_20428)">
<path d="M200 100.25C200 45.16 155.34 0.500557 100.25 0.500557C45.16 0.500557 0.500488 45.16 0.500488 100.25C0.500488 155.341 45.16 200 100.25 200C155.34 200 200 155.341 200 100.25Z" fill="#010101"/>
</g>
<path d="M129.988 86.7205L130.04 101.816C130.044 103.185 131.53 104.038 132.711 103.353L151.967 92.2341C152.519 91.9178 152.86 91.3252 152.86 90.6885L152.844 86.5643C145.28 85.4472 137.54 85.5073 129.984 86.7245L129.988 86.7205Z" fill="white"/>
<path d="M47.3921 95.7417V129.492C47.3921 130.129 47.7284 130.717 48.285 131.034L67.5607 142.165C68.7499 142.858 70.2314 142.001 70.2314 140.627V108.951C62.8559 106.569 57.2662 99.922 50.0588 96.7267C49.1819 96.3383 48.293 96.014 47.3921 95.7417Z" fill="white"/>
<path d="M150.181 105.684L101.115 134.017C100.567 134.329 99.8902 134.333 99.3416 134.017L83.6296 125.016C82.4404 124.339 80.9629 125.196 80.9629 126.561V148.796C80.9629 149.432 81.3072 150.025 81.8598 150.341L99.3737 160.372C99.9222 160.688 100.599 160.688 101.147 160.372L151.967 131.03C152.52 130.713 152.86 130.125 152.86 129.488V107.225H152.856C152.856 105.848 151.371 104.991 150.185 105.68L150.181 105.684Z" fill="white"/>
<path d="M100.17 0.500557H100.126C45.034 0.500557 0.376465 45.1581 0.376465 100.25C0.376465 107.165 1.08118 113.912 2.42255 120.431C3.01916 123.33 7.04727 123.53 7.98423 120.723C9.24551 116.947 10.9432 113.336 13.1775 109.988C20.529 98.977 34.9517 91.9819 47.3924 95.7497V70.8203C47.3924 70.1876 47.7288 69.599 48.2813 69.2787L65.7271 59.1244C66.2797 58.804 66.9644 58.804 67.5129 59.1244L86.7686 70.2437C87.9498 70.9284 87.9578 72.6341 86.7726 73.3268L71.1246 82.4361C70.5761 82.7525 70.2357 83.3371 70.2357 83.9777V108.959C70.9124 109.175 71.5931 109.372 72.3018 109.512C83.4452 111.726 93.3273 102.949 102.921 96.8669C111.125 91.6655 120.403 88.2701 129.989 86.7245L129.977 83.7094C129.977 83.0728 129.636 82.4882 129.084 82.1719L80.0177 53.851C78.8285 53.1663 78.8285 51.4525 80.0177 50.7678L99.3014 39.6325C99.8539 39.3162 100.531 39.3162 101.079 39.6325L151.899 68.9744C152.448 69.2907 152.788 69.8753 152.792 70.512L152.848 86.5683C159.038 87.4853 165.109 89.183 170.846 91.6976C180.801 96.058 189.634 102.793 196.689 111.057C197.566 112.086 199.243 111.566 199.379 110.22C199.704 106.957 199.876 103.65 199.876 100.302V100.214C199.876 45.1461 155.234 0.508565 100.17 0.508565V0.500557Z" fill="#70E000"/>
<path d="M151.899 68.9664L101.079 39.6245C100.53 39.3081 99.8496 39.3081 99.3011 39.6245L80.0174 50.7598C78.8282 51.4445 78.8282 53.1583 80.0174 53.843L129.083 82.1639C129.632 82.4802 129.976 83.0648 129.976 83.7014L129.988 86.7165C137.544 85.4993 145.284 85.4392 152.848 86.5563L152.792 70.5C152.788 69.8673 152.447 69.2787 151.899 68.9624V68.9664Z" fill="#010101"/>
<path d="M71.1204 82.4281L86.7684 73.3188C87.9496 72.6261 87.9456 70.9204 86.7643 70.2357L67.5087 59.1163C66.9601 58.796 66.2795 58.796 65.7229 59.1163L48.2771 69.2707C47.7285 69.591 47.3882 70.1796 47.3882 70.8123V95.7417C48.2891 96.014 49.178 96.3383 50.0549 96.7267C57.2663 99.918 62.852 106.569 70.2275 108.951V83.9697C70.2275 83.329 70.5638 82.7444 71.1164 82.4281H71.1204Z" fill="#010101"/>
</g>
<defs>
<clipPath id="clip0_3355_20428">
<rect width="200" height="200" fill="white"/>
</clipPath>
</defs>
</svg>
