<svg width="40" height="40" viewBox="0 0 40 40" fill="none" xmlns="http://www.w3.org/2000/svg">
<rect width="40" height="40" rx="20" fill="#071927"/>
<path d="M9.77984 15.1592C9.60565 15.1592 9.49259 15.3428 9.57099 15.4983L14.7939 25.8609C14.8803 26.0323 15.1251 26.0323 15.2116 25.8609L20.4345 15.4983C20.5129 15.3428 20.3998 15.1592 20.2256 15.1592H17.8751C17.7841 15.1592 17.7014 15.2119 17.663 15.2944L15.2594 20.4622C15.1756 20.6425 14.9192 20.6425 14.8353 20.4622L12.4317 15.2944C12.3933 15.2119 12.3106 15.1592 12.2196 15.1592H9.77984Z" fill="url(#paint0_linear_2574_19123)"/>
<path d="M25.3382 15.3809C22.4086 15.3809 20.2488 17.7501 20.2488 20.7441C20.2488 23.738 22.6224 26.1072 25.7018 26.1072C27.5781 26.1072 28.9564 25.2546 29.5044 24.8504C29.6594 24.7362 29.6865 24.5243 29.5802 24.3638L28.7496 23.1088C28.6119 22.9008 28.3101 22.8662 28.1047 23.0077C27.6617 23.3127 26.8401 23.738 25.7018 23.738C24.3579 23.738 23.4044 22.9213 23.0174 22.1244C22.9088 21.9008 23.0918 21.6702 23.3404 21.6702H30.0578C30.2653 21.6702 30.4369 21.508 30.4424 21.3006C30.4491 21.052 30.4491 20.8321 30.4491 20.701C30.4491 17.5563 28.1182 15.3809 25.3382 15.3809ZM23.2872 19.7963C23.0568 19.7963 22.8746 19.5963 22.9419 19.376C23.1883 18.5685 23.939 17.7286 25.3382 17.7286C26.7798 17.7286 27.583 18.5912 27.8141 19.393C27.876 19.6076 27.696 19.7963 27.4727 19.7963H23.2872Z" fill="url(#paint1_linear_2574_19123)"/>
<path fill-rule="evenodd" clip-rule="evenodd" d="M13.1363 20.3875L15.4797 16.9794C15.5295 16.9069 15.6431 16.9422 15.6431 17.0302L15.6431 19.4676L16.9737 19.4676C17.0459 19.4676 17.0885 19.5485 17.0476 19.608L14.7042 23.0161C14.6543 23.0886 14.5407 23.0533 14.5407 22.9653L14.5408 20.5279L13.2101 20.5279C13.138 20.5279 13.0954 20.447 13.1363 20.3875Z" fill="#071927"/>
<rect x="2.93035" y="2.93011" width="34.1401" height="34.1401" rx="17.0701" stroke="url(#paint2_linear_2574_19123)" stroke-width="2.03822"/>
<defs>
<linearGradient id="paint0_linear_2574_19123" x1="2.69395" y1="40.023" x2="18.3187" y2="0.0111963" gradientUnits="userSpaceOnUse">
<stop stop-color="#FF5400"/>
<stop offset="0.786574" stop-color="#FFB600"/>
</linearGradient>
<linearGradient id="paint1_linear_2574_19123" x1="13.8452" y1="40.0061" x2="29.9816" y2="1.01282" gradientUnits="userSpaceOnUse">
<stop stop-color="#FF5400"/>
<stop offset="0.786574" stop-color="#FFB600"/>
</linearGradient>
<linearGradient id="paint2_linear_2574_19123" x1="10.0279" y1="32.5779" x2="29.973" y2="7.42025" gradientUnits="userSpaceOnUse">
<stop stop-color="#FF5400"/>
<stop offset="1" stop-color="#FFB600"/>
</linearGradient>
</defs>
</svg>
