<svg width="182" height="55" viewBox="0 0 182 55" fill="none" xmlns="http://www.w3.org/2000/svg">
<path d="M25.1571 24.4951C24.6552 24.884 25.1831 28.1583 25.6688 28.6281C26.1545 29.098 30.5146 32.9461 30.5146 32.9461L31.7774 31.1154C31.7774 31.1154 25.8209 24.0091 25.1571 24.4951Z" fill="url(#paint0_linear_4176_12386)"/>
<path d="M15.9915 53.8657L44.0441 34.7257C44.5154 34.4056 44.8892 31.1089 44.3204 30.7249C43.7515 30.3408 15.9915 53.8657 15.9915 53.8657Z" fill="url(#paint1_linear_4176_12386)"/>
<path d="M51.7616 0.420776L37.0327 24.6955L38.1571 25.6704L51.7616 0.420776Z" fill="url(#paint2_linear_4176_12386)"/>
<path d="M51.1576 0.129632L25.229 24.563C25.19 24.6007 25.159 24.646 25.1378 24.6961C25.1167 24.7462 25.1058 24.8 25.1058 24.8544C25.1058 24.9089 25.1167 24.9627 25.1378 25.0128C25.159 25.0629 25.19 25.1081 25.229 25.1459L31.7514 31.1207L15.6628 53.7081C15.6321 53.7411 15.6082 53.7798 15.5924 53.8221C15.5766 53.8643 15.5693 53.9093 15.5707 53.9544C15.5738 54.0455 15.6127 54.1316 15.6789 54.1939C15.7451 54.2562 15.8332 54.2894 15.9238 54.2864C16.0144 54.2834 16.1001 54.2443 16.162 54.1777L44.2326 31.3635C44.2764 31.3271 44.3118 31.2813 44.336 31.2295C44.3603 31.1777 44.3729 31.1212 44.3729 31.064C44.3729 31.0067 44.3603 30.9502 44.336 30.8984C44.3118 30.8467 44.2764 30.8009 44.2326 30.7644L37.0337 24.6763L51.6891 0.550619C51.7165 0.515535 51.7369 0.47535 51.7489 0.432358C51.761 0.389366 51.7645 0.344409 51.7593 0.300054C51.754 0.2557 51.7402 0.212817 51.7184 0.173852C51.6967 0.134888 51.6676 0.100603 51.6327 0.0729603C51.5978 0.045318 51.5578 0.0248572 51.5151 0.0127453C51.4723 0.000633365 51.4276 -0.00289391 51.3835 0.00236849C51.3393 0.00763089 51.2967 0.0215806 51.2579 0.0434161C51.2192 0.0652517 51.1851 0.094548 51.1576 0.129632Z" fill="#F3FC1F"/>
<path d="M53.2975 25.2042C53.6024 25.2518 53.9043 25.3167 54.2019 25.3986L55.074 25.6742C55.6354 25.8882 56.1805 26.1428 56.7052 26.4359C57.7712 27.0194 58.8048 27.6353 59.8061 28.316C61.825 29.6612 63.7953 31.1523 65.4427 33.0972C66.2664 34.0859 67.0254 35.188 67.4615 36.5494C67.7012 37.2522 67.7947 37.9969 67.7361 38.7374C67.6893 39.5037 67.4624 40.2479 67.0739 40.9092C66.8865 41.2309 66.6703 41.5347 66.4279 41.8169C66.1912 42.0816 65.9376 42.3306 65.6688 42.5624C65.1511 42.9909 64.5878 43.3605 63.9891 43.6645C62.8526 44.2321 61.6551 44.6671 60.4199 44.9611C58.0134 45.5608 55.5909 45.7877 53.2006 45.8525C50.8022 45.9094 48.4026 45.8283 46.0136 45.6094C41.2739 45.1855 36.5754 44.3834 31.9626 43.2107C27.3525 42.0728 22.8295 40.605 18.4285 38.8185C16.232 37.9109 14.0678 36.906 11.9682 35.7877C10.9185 35.2204 9.88483 34.6369 8.86734 34.0048C7.84986 33.3727 6.86468 32.7082 5.89564 31.9951C4.93628 31.2652 4.01957 30.4806 3.15005 29.645C2.26599 28.7878 1.50501 27.8114 0.888976 26.7439C0.568741 26.1962 0.324241 25.6073 0.162202 24.9935C-0.00496801 24.3593 -0.0434111 23.6979 0.0491508 23.0486C0.148844 22.393 0.391489 21.7677 0.759774 21.2171C1.12465 20.6895 1.57182 20.2243 2.08411 19.8395C3.08057 19.1139 4.18785 18.5556 5.36268 18.1863C6.50612 17.8102 7.67823 17.5283 8.86734 17.3435C10.0438 17.149 11.2299 17.0192 12.4205 16.9545L13.3087 16.8897L14.197 16.8087L15.0853 16.679C15.376 16.6142 15.6667 16.5493 15.9736 16.4521C16.177 16.3856 16.3985 16.4029 16.5893 16.5002C16.78 16.5974 16.9245 16.7666 16.9911 16.9707C17.0263 17.0728 17.0409 17.181 17.0339 17.2888C17.0269 17.3966 16.9985 17.502 16.9504 17.5986C16.9022 17.6953 16.8353 17.7813 16.7535 17.8516C16.6718 17.9219 16.5768 17.9751 16.4742 18.008C16.3108 18.0562 16.137 18.0562 15.9736 18.008C15.4015 17.8336 14.8103 17.7302 14.2132 17.7001C13.6313 17.6758 13.0485 17.692 12.4689 17.7487C11.3061 17.8297 10.1432 17.9756 8.99655 18.1701C7.86314 18.3687 6.74576 18.6504 5.65339 19.0129C4.5713 19.4019 3.52151 19.8881 2.64938 20.5688C2.22317 20.896 1.85233 21.29 1.55115 21.7357C1.26092 22.1683 1.07309 22.6617 1.00203 23.1782C0.856677 24.2155 1.19584 25.2852 1.7611 26.2414C2.353 27.2119 3.07587 28.0955 3.90913 28.8671C4.73577 29.6723 5.62112 30.4145 6.55782 31.0875C8.45364 32.4359 10.4516 33.6335 12.5335 34.6693C14.6169 35.7228 16.765 36.6629 18.9453 37.5057C23.3076 39.1912 27.7882 40.5509 32.3502 41.5738C36.8972 42.628 41.5197 43.3216 46.1751 43.6483C48.486 43.8184 50.805 43.8509 53.1198 43.7456C54.2665 43.6807 55.4132 43.5835 56.5437 43.4376C57.6644 43.2941 58.7754 43.0831 59.8707 42.8055C60.9271 42.535 61.9507 42.1491 62.9232 41.6548C63.8438 41.1524 64.6352 40.5041 65.0551 39.7585C65.475 39.013 65.5073 38.1702 65.2004 37.2788C64.8936 36.3874 64.3283 35.4797 63.6177 34.6693C62.8891 33.8388 62.0893 33.0742 61.2274 32.3841C60.3414 31.6726 59.4196 31.0072 58.4657 30.3906C57.4966 29.7585 56.5114 29.1912 55.4939 28.6239C54.9933 28.3484 54.5088 28.0405 54.0243 27.7163L53.3136 27.1977C53.073 27.0208 52.8463 26.8258 52.6353 26.6142H52.6192C52.5435 26.5389 52.4834 26.4492 52.4424 26.3505C52.4014 26.2517 52.3803 26.1458 52.3803 26.0388C52.3803 25.9319 52.4014 25.8259 52.4424 25.7272C52.4834 25.6284 52.5435 25.5388 52.6192 25.4635C52.705 25.3711 52.8107 25.2997 52.9283 25.2548C53.0459 25.2098 53.1722 25.1925 53.2975 25.2042Z" fill="url(#paint3_linear_4176_12386)"/>
<path d="M53.2975 25.2042C53.6024 25.2518 53.9043 25.3167 54.2019 25.3986L55.074 25.6742C55.6354 25.8882 56.1805 26.1428 56.7052 26.4359C57.7712 27.0194 58.8048 27.6353 59.8061 28.316C61.825 29.6612 63.7953 31.1523 65.4427 33.0972C66.2664 34.0859 67.0254 35.188 67.4615 36.5494C67.7012 37.2522 67.7947 37.9969 67.7361 38.7374C67.6893 39.5037 67.4624 40.2479 67.0739 40.9092C66.8865 41.2309 66.6703 41.5347 66.4279 41.8169C66.1912 42.0816 65.9376 42.3306 65.6688 42.5624C65.1511 42.9909 64.5878 43.3605 63.9891 43.6645C62.8526 44.2321 61.6551 44.6671 60.4199 44.9611C58.0134 45.5608 55.5909 45.7877 53.2006 45.8525C50.8022 45.9094 48.4026 45.8283 46.0136 45.6094C41.2739 45.1855 36.5754 44.3834 31.9626 43.2107C27.3525 42.0728 22.8295 40.605 18.4285 38.8185C16.232 37.9109 14.0678 36.906 11.9682 35.7877C10.9185 35.2204 9.88483 34.6369 8.86734 34.0048C7.84986 33.3727 6.86468 32.7082 5.89564 31.9951C4.93628 31.2652 4.01957 30.4806 3.15005 29.645C2.26599 28.7878 1.50501 27.8114 0.888976 26.7439C0.568741 26.1962 0.324241 25.6073 0.162202 24.9935C-0.00496801 24.3593 -0.0434111 23.6979 0.0491508 23.0486C0.148844 22.393 0.391489 21.7677 0.759774 21.2171C1.12465 20.6895 1.57182 20.2243 2.08411 19.8395C3.08057 19.1139 4.18785 18.5556 5.36268 18.1863C6.50612 17.8102 7.67823 17.5283 8.86734 17.3435C10.0438 17.149 11.2299 17.0192 12.4205 16.9545L13.3087 16.8897L14.197 16.8087L15.0853 16.679C15.376 16.6142 15.6667 16.5493 15.9736 16.4521C16.177 16.3856 16.3985 16.4029 16.5893 16.5002C16.78 16.5974 16.9245 16.7666 16.9911 16.9707C17.0263 17.0728 17.0409 17.181 17.0339 17.2888C17.0269 17.3966 16.9985 17.502 16.9504 17.5986C16.9022 17.6953 16.8353 17.7813 16.7535 17.8516C16.6718 17.9219 16.5768 17.9751 16.4742 18.008C16.3108 18.0562 16.137 18.0562 15.9736 18.008C15.4015 17.8336 14.8103 17.7302 14.2132 17.7001C13.6313 17.6758 13.0485 17.692 12.4689 17.7487C11.3061 17.8297 10.1432 17.9756 8.99655 18.1701C7.86314 18.3687 6.74576 18.6504 5.65339 19.0129C4.5713 19.4019 3.52151 19.8881 2.64938 20.5688C2.22317 20.896 1.85233 21.29 1.55115 21.7357C1.26092 22.1683 1.07309 22.6617 1.00203 23.1782C0.856677 24.2155 1.19584 25.2852 1.7611 26.2414C2.353 27.2119 3.07587 28.0955 3.90913 28.8671C4.73577 29.6723 5.62112 30.4145 6.55782 31.0875C8.45364 32.4359 10.4516 33.6335 12.5335 34.6693C14.6169 35.7228 16.765 36.6629 18.9453 37.5057C23.3076 39.1912 27.7882 40.5509 32.3502 41.5738C36.8972 42.628 41.5197 43.3216 46.1751 43.6483C48.486 43.8184 50.805 43.8509 53.1198 43.7456C54.2665 43.6807 55.4132 43.5835 56.5437 43.4376C57.6644 43.2941 58.7754 43.0831 59.8707 42.8055C60.9271 42.535 61.9507 42.1491 62.9232 41.6548C63.8438 41.1524 64.6352 40.5041 65.0551 39.7585C65.475 39.013 65.5073 38.1702 65.2004 37.2788C64.8936 36.3874 64.3283 35.4797 63.6177 34.6693C62.8891 33.8388 62.0893 33.0742 61.2274 32.3841C60.3414 31.6726 59.4196 31.0072 58.4657 30.3906C57.4966 29.7585 56.5114 29.1912 55.4939 28.6239C54.9933 28.3484 54.5088 28.0405 54.0243 27.7163L53.3136 27.1977C53.073 27.0208 52.8463 26.8258 52.6353 26.6142H52.6192C52.5435 26.5389 52.4834 26.4492 52.4424 26.3505C52.4014 26.2517 52.3803 26.1458 52.3803 26.0388C52.3803 25.9319 52.4014 25.8259 52.4424 25.7272C52.4834 25.6284 52.5435 25.5388 52.6192 25.4635C52.705 25.3711 52.8107 25.2997 52.9283 25.2548C53.0459 25.2098 53.1722 25.1925 53.2975 25.2042Z" fill="url(#paint4_linear_4176_12386)"/>
<path d="M54.7076 25.6222L53.7385 27.7745L51.0773 26.2471C50.1468 25.7009 49.3812 24.8551 48.8776 23.817L48.816 23.6781C49.9626 23.426 51.1507 23.6028 52.2002 24.1815L54.7076 25.6222Z" fill="url(#paint5_linear_4176_12386)"/>
<path d="M54.8041 25.6703L55.9698 24.4078L53.024 24.7194L54.8041 25.6703Z" fill="url(#paint6_linear_4176_12386)"/>
<path d="M52.1824 26.512L53.8657 27.5485L53.6273 29.4578" fill="url(#paint7_linear_4176_12386)"/>
<path d="M54.7076 25.6222L53.7385 27.7745L51.0773 26.2471C50.1468 25.7009 49.3812 24.8551 48.8776 23.817L48.816 23.6781C49.9626 23.426 51.1507 23.6028 52.2002 24.1815L54.7076 25.6222Z" fill="url(#paint8_linear_4176_12386)"/>
<path d="M54.8041 25.6703L55.9698 24.4078L53.024 24.7194L54.8041 25.6703Z" fill="url(#paint9_linear_4176_12386)"/>
<path d="M52.1824 26.512L53.8657 27.5485L53.6273 29.4578" fill="url(#paint10_linear_4176_12386)"/>
<path d="M51.7616 0.420776L37.0327 24.6955L38.1571 25.6704L51.7616 0.420776Z" fill="url(#paint11_linear_4176_12386)"/>
<path d="M77.4854 44H82.876L89.9512 22.8623H85.0439L80.2246 39.4736H80.1367L75.3027 22.8623H70.4102L77.4854 44ZM96.9092 44.3223C101.655 44.3223 104.688 41.2754 104.688 36.1484V36.1191C104.688 31.0361 101.597 27.9746 96.8945 27.9746C92.207 27.9746 89.1309 31.0654 89.1309 36.1191V36.1484C89.1309 41.2607 92.1338 44.3223 96.9092 44.3223ZM96.9238 40.9678C94.8145 40.9678 93.4814 39.2246 93.4814 36.1484V36.1191C93.4814 33.0869 94.8291 31.3291 96.8945 31.3291C98.9746 31.3291 100.337 33.0869 100.337 36.1191V36.1484C100.337 39.21 99.0039 40.9678 96.9238 40.9678ZM107.002 44H111.279V22.8623H107.002V44ZM120.405 44.3223C121.299 44.3223 121.987 44.2344 122.471 44.1611V41.0264C122.207 41.0557 121.929 41.0996 121.548 41.0996C120.259 41.0996 119.6 40.6016 119.6 39.1367V31.5195H122.471V28.2969H119.6V24.459H115.278V28.2969H113.096V31.5195H115.278V39.6055C115.278 42.9746 116.919 44.3223 120.405 44.3223ZM129.355 44.249C131.421 44.249 133.091 43.2676 133.984 41.6562H134.072V44H138.35V33.2334C138.35 30.0693 135.728 27.9746 131.67 27.9746C127.524 27.9746 125.034 30.0547 124.8 32.9551L124.785 33.1309H128.696L128.726 32.999C128.931 31.9883 129.897 31.2412 131.494 31.2412C133.164 31.2412 134.072 32.1055 134.072 33.4971V34.4639L130.19 34.6982C126.294 34.9473 124.082 36.6172 124.082 39.4736V39.5029C124.082 42.2715 126.206 44.249 129.355 44.249ZM128.315 39.2832V39.2539C128.315 38.1406 129.18 37.4375 130.835 37.335L134.072 37.1299V38.2578C134.072 39.8984 132.666 41.1289 130.747 41.1289C129.268 41.1289 128.315 40.4404 128.315 39.2832ZM148.457 49.4492C153.174 49.4492 156.118 47.0615 156.118 43.5605V28.2969H151.841V30.9775H151.753C150.903 29.1465 149.189 27.9746 146.978 27.9746C143.008 27.9746 140.547 30.9482 140.547 35.958V35.9727C140.547 40.8506 142.979 43.7803 146.904 43.7803C149.175 43.7803 150.933 42.7402 151.753 41.0996H151.841V43.502C151.841 45.2598 150.669 46.4023 148.457 46.4023C146.67 46.4023 145.527 45.7285 145.19 44.9521L145.146 44.8496H140.986L141.001 44.9814C141.411 47.501 144.136 49.4492 148.457 49.4492ZM148.384 40.6455C146.245 40.6455 144.897 38.9023 144.897 36.0752V36.0605C144.897 33.248 146.26 31.5195 148.384 31.5195C150.464 31.5195 151.855 33.2627 151.855 36.0605V36.0752C151.855 38.8877 150.479 40.6455 148.384 40.6455ZM166.079 44.3223C170.562 44.3223 172.729 41.6709 173.213 39.3564L173.257 39.1953H169.331L169.302 39.2832C168.994 40.1621 167.925 41.1289 166.167 41.1289C163.984 41.1289 162.622 39.6641 162.578 37.1592H173.389V35.8408C173.389 31.0947 170.503 27.9746 165.903 27.9746C161.304 27.9746 158.359 31.168 158.359 36.1631V36.1777C158.359 41.2021 161.274 44.3223 166.079 44.3223ZM165.977 31.168C167.749 31.168 169.023 32.2959 169.287 34.4639H162.622C162.9 32.3398 164.219 31.168 165.977 31.168Z" fill="url(#paint12_linear_4176_12386)"/>
<defs>
<linearGradient id="paint0_linear_4176_12386" x1="24.304" y1="31.6546" x2="31.0288" y2="25.5806" gradientUnits="userSpaceOnUse">
<stop stop-color="#3AD889"/>
<stop offset="0.15" stop-color="#35CE81"/>
<stop offset="0.4" stop-color="#29B36D"/>
<stop offset="0.71" stop-color="#15884C"/>
<stop offset="1" stop-color="#005B29"/>
</linearGradient>
<linearGradient id="paint1_linear_4176_12386" x1="46.5194" y1="29.0013" x2="17.9511" y2="56.3171" gradientUnits="userSpaceOnUse">
<stop stop-color="#3AD889"/>
<stop offset="0.36" stop-color="#23A763"/>
<stop offset="0.79" stop-color="#0A7039"/>
<stop offset="1" stop-color="#005B29"/>
</linearGradient>
<linearGradient id="paint2_linear_4176_12386" x1="3398.03" y1="2029.73" x2="4748.08" y2="2029.73" gradientUnits="userSpaceOnUse">
<stop stop-color="#3AD889"/>
<stop offset="0.36" stop-color="#23A763"/>
<stop offset="0.79" stop-color="#0A7039"/>
<stop offset="1" stop-color="#005B29"/>
</linearGradient>
<linearGradient id="paint3_linear_4176_12386" x1="-0.771297" y1="31.1442" x2="67.833" y2="31.1442" gradientUnits="userSpaceOnUse">
<stop stop-color="#3AD889" stop-opacity="0.5"/>
<stop offset="0.21" stop-color="#65E070" stop-opacity="0.62"/>
<stop offset="0.6" stop-color="#B1EF45" stop-opacity="0.82"/>
<stop offset="0.87" stop-color="#E1F82A" stop-opacity="0.95"/>
<stop offset="1" stop-color="#F3FC1F"/>
</linearGradient>
<linearGradient id="paint4_linear_4176_12386" x1="-0.771297" y1="31.1442" x2="67.833" y2="31.1442" gradientUnits="userSpaceOnUse">
<stop stop-color="#3AD889" stop-opacity="0.5"/>
<stop offset="0.21" stop-color="#65E070" stop-opacity="0.62"/>
<stop offset="0.6" stop-color="#B1EF45" stop-opacity="0.82"/>
<stop offset="0.87" stop-color="#E1F82A" stop-opacity="0.95"/>
<stop offset="1" stop-color="#F3FC1F"/>
</linearGradient>
<linearGradient id="paint5_linear_4176_12386" x1="45.2074" y1="24.4928" x2="52.8681" y2="27.987" gradientUnits="userSpaceOnUse">
<stop stop-color="#3AD889"/>
<stop offset="0.1" stop-color="#4FDC7D"/>
<stop offset="0.54" stop-color="#A7ED4B"/>
<stop offset="0.85" stop-color="#DEF82B"/>
<stop offset="1" stop-color="#F3FC1F"/>
</linearGradient>
<linearGradient id="paint6_linear_4176_12386" x1="1046.9" y1="212.871" x2="1046.86" y2="226.102" gradientUnits="userSpaceOnUse">
<stop stop-color="#3AD889"/>
<stop offset="0.1" stop-color="#4FDC7D"/>
<stop offset="0.54" stop-color="#A7ED4B"/>
<stop offset="0.85" stop-color="#DEF82B"/>
<stop offset="1" stop-color="#F3FC1F"/>
</linearGradient>
<linearGradient id="paint7_linear_4176_12386" x1="286.342" y1="2645.88" x2="309.191" y2="2631.52" gradientUnits="userSpaceOnUse">
<stop stop-color="#3AD889"/>
<stop offset="0.1" stop-color="#4FDC7D"/>
<stop offset="0.54" stop-color="#A7ED4B"/>
<stop offset="0.85" stop-color="#DEF82B"/>
<stop offset="1" stop-color="#F3FC1F"/>
</linearGradient>
<linearGradient id="paint8_linear_4176_12386" x1="14402.1" y1="-10781.6" x2="14400.4" y2="-10485.5" gradientUnits="userSpaceOnUse">
<stop stop-color="#3AD889"/>
<stop offset="0.1" stop-color="#4FDC7D"/>
<stop offset="0.54" stop-color="#A7ED4B"/>
<stop offset="0.85" stop-color="#DEF82B"/>
<stop offset="1" stop-color="#F3FC1F"/>
</linearGradient>
<linearGradient id="paint9_linear_4176_12386" x1="1047.2" y1="212.871" x2="1047.15" y2="226.102" gradientUnits="userSpaceOnUse">
<stop stop-color="#3AD889"/>
<stop offset="0.1" stop-color="#4FDC7D"/>
<stop offset="0.54" stop-color="#A7ED4B"/>
<stop offset="0.85" stop-color="#DEF82B"/>
<stop offset="1" stop-color="#F3FC1F"/>
</linearGradient>
<linearGradient id="paint10_linear_4176_12386" x1="286.551" y1="2645.86" x2="309.4" y2="2631.49" gradientUnits="userSpaceOnUse">
<stop stop-color="#3AD889"/>
<stop offset="0.1" stop-color="#4FDC7D"/>
<stop offset="0.54" stop-color="#A7ED4B"/>
<stop offset="0.85" stop-color="#DEF82B"/>
<stop offset="1" stop-color="#F3FC1F"/>
</linearGradient>
<linearGradient id="paint11_linear_4176_12386" x1="3409.22" y1="2029.73" x2="4759.27" y2="2029.73" gradientUnits="userSpaceOnUse">
<stop stop-color="#3AD889"/>
<stop offset="0.36" stop-color="#23A763"/>
<stop offset="0.79" stop-color="#0A7039"/>
<stop offset="1" stop-color="#005B29"/>
</linearGradient>
<linearGradient id="paint12_linear_4176_12386" x1="65.8" y1="18.8571" x2="185.777" y2="31.5523" gradientUnits="userSpaceOnUse">
<stop stop-color="#F3FC1F"/>
<stop offset="1" stop-color="#3AD889"/>
</linearGradient>
</defs>
</svg>
